<?xml version="1.0" encoding="UTF-8"?>
<svg xmlns="http://www.w3.org/2000/svg" xmlns:xlink="http://www.w3.org/1999/xlink" width="450pt" height="449.999984pt" viewBox="0 0 450 449.999984" version="1.2">
<g id="surface1">
<rect x="0" y="0" width="450" height="449.999984" style="fill:rgb(100%,100%,100%);fill-opacity:1;stroke:none;"/>
<rect x="0" y="0" width="450" height="449.999984" style="fill:rgb(100%,100%,100%);fill-opacity:1;stroke:none;"/>
<rect x="0" y="0" width="450" height="449.999984" style="fill:rgb(0%,0%,0%);fill-opacity:1;stroke:none;"/>
<path style=" stroke:none;fill-rule:nonzero;fill:rgb(100%,100%,100%);fill-opacity:1;" d="M 159.449219 60.199219 L 203.410156 60.199219 L 203.410156 172.273438 L 159.449219 172.273438 Z M 159.449219 60.199219 "/>
<path style=" stroke:none;fill-rule:nonzero;fill:rgb(100%,100%,100%);fill-opacity:1;" d="M 195.546875 103.144531 L 198.738281 60.105469 L 413.628906 76.039062 L 410.4375 119.078125 Z M 195.546875 103.144531 "/>
<path style=" stroke:none;fill-rule:nonzero;fill:rgb(100%,100%,100%);fill-opacity:1;" d="M 162.699219 184.621094 L 165.890625 141.582031 L 410.417969 159.714844 L 407.226562 202.753906 Z M 162.699219 184.621094 "/>
<path style=" stroke:none;fill-rule:nonzero;fill:rgb(100%,100%,100%);fill-opacity:1;" d="M 369.121094 159.785156 L 413.078125 159.785156 L 413.078125 281.175781 L 369.121094 281.175781 Z M 369.121094 159.785156 "/>
<path style=" stroke:none;fill-rule:nonzero;fill:rgb(100%,100%,100%);fill-opacity:1;" d="M 159.457031 265.527344 L 162.648438 222.488281 L 382.953125 238.828125 L 379.761719 281.863281 Z M 159.457031 265.527344 "/>
<path style=" stroke:none;fill-rule:nonzero;fill:rgb(100%,100%,100%);fill-opacity:1;" d="M 410.554688 233.460938 L 408.378906 281.199219 L 354.050781 278.722656 Z M 410.554688 233.460938 "/>
<path style=" stroke:none;fill-rule:nonzero;fill:rgb(100%,100%,100%);fill-opacity:1;" d="M 369.785156 75.75 L 413.746094 75.75 L 413.746094 132.515625 L 369.785156 132.515625 Z M 369.785156 75.75 "/>
<path style=" stroke:none;fill-rule:nonzero;fill:rgb(100%,100%,100%);fill-opacity:1;" d="M 159.402344 196.082031 L 159.402344 148.292969 L 213.785156 148.292969 Z M 159.402344 196.082031 "/>
<path style=" stroke:none;fill-rule:nonzero;fill:rgb(100%,100%,100%);fill-opacity:1;" d="M 159.402344 274.96875 L 159.402344 227.179688 L 213.785156 227.179688 Z M 159.402344 274.96875 "/>
<path style=" stroke:none;fill-rule:nonzero;fill:rgb(100%,100%,100%);fill-opacity:1;" d="M 379.609375 256.761719 L 412.929688 256.761719 L 412.929688 281.917969 L 379.609375 281.917969 Z M 379.609375 256.761719 "/>
<path style=" stroke:none;fill-rule:nonzero;fill:rgb(100%,100%,100%);fill-opacity:1;" d="M 164.105469 59.621094 L 203.363281 60.460938 L 202.785156 87.53125 L 163.523438 86.691406 Z M 164.105469 59.621094 "/>
<path style=" stroke:none;fill-rule:nonzero;fill:rgb(100%,100%,100%);fill-opacity:1;" d="M 159.449219 59.707031 L 167.617188 59.707031 L 167.617188 86.753906 L 159.449219 86.753906 Z M 159.449219 59.707031 "/>
<path style=" stroke:none;fill-rule:nonzero;fill:rgb(100%,100%,100%);fill-opacity:1;" d="M 159.449219 275.925781 L 203.410156 275.925781 L 203.410156 384.507812 L 159.449219 384.507812 Z M 159.449219 275.925781 "/>
<path style=" stroke:none;fill-rule:nonzero;fill:rgb(100%,100%,100%);fill-opacity:1;" d="M 159.453125 258.101562 L 159.453125 223.910156 L 184.289062 223.910156 Z M 159.453125 258.101562 "/>
<path style=" stroke:none;fill-rule:nonzero;fill:rgb(100%,100%,100%);fill-opacity:1;" d="M 159.449219 223.148438 L 175.46875 223.148438 L 175.46875 238.855469 L 159.449219 238.855469 Z M 159.449219 223.148438 "/>
<path style=" stroke:none;fill-rule:nonzero;fill:rgb(0%,0%,0%);fill-opacity:1;" d="M 150.730469 207.078125 L 228.574219 210.167969 L 227.953125 225.863281 L 150.109375 222.773438 Z M 150.730469 207.078125 "/>
<path style=" stroke:none;fill-rule:nonzero;fill:rgb(0%,0%,0%);fill-opacity:1;" d="M 155.105469 298.863281 L 155.105469 274.96875 L 195.535156 274.96875 Z M 155.105469 298.863281 "/>
<path style=" stroke:none;fill-rule:nonzero;fill:rgb(100%,100%,100%);fill-opacity:1;" d="M 159.460938 388.730469 L 159.460938 345.574219 L 412.945312 345.574219 L 412.945312 388.730469 Z M 159.460938 388.730469 "/>
<path style=" stroke:none;fill-rule:nonzero;fill:rgb(100%,100%,100%);fill-opacity:1;" d="M 106.234375 59.632812 L 150.195312 59.632812 L 150.195312 382.460938 L 106.234375 382.460938 Z M 106.234375 59.632812 "/>
<path style=" stroke:none;fill-rule:nonzero;fill:rgb(0%,0%,0%);fill-opacity:1;" d="M 36.34375 390.378906 L 36.34375 366.042969 L 80.179688 366.042969 L 80.179688 390.378906 Z M 36.34375 390.378906 "/>
<path style=" stroke:none;fill-rule:nonzero;fill:rgb(100%,100%,100%);fill-opacity:1;" d="M 36.339844 74.808594 L 80.300781 74.808594 L 80.300781 390.355469 L 36.339844 390.355469 Z M 36.339844 74.808594 "/>
<path style=" stroke:none;fill-rule:nonzero;fill:rgb(100%,100%,100%);fill-opacity:1;" d="M 41.195312 390.378906 L 37.292969 355.488281 L 146.117188 343.308594 L 150.023438 378.199219 Z M 41.195312 390.378906 "/>
<path style=" stroke:none;fill-rule:nonzero;fill:rgb(100%,100%,100%);fill-opacity:1;" d="M 75.449219 363.378906 L 147.117188 355.386719 L 150.132812 382.441406 L 78.464844 390.433594 Z M 75.449219 363.378906 "/>
<path style=" stroke:none;fill-rule:nonzero;fill:rgb(100%,100%,100%);fill-opacity:1;" d="M 106.234375 322.621094 L 128.214844 322.621094 L 128.214844 349.839844 L 106.234375 349.839844 Z M 106.234375 322.621094 "/>
<path style=" stroke:none;fill-rule:nonzero;fill:rgb(100%,100%,100%);fill-opacity:1;" d="M 76.402344 374.699219 L 124.050781 368.976562 L 125.9375 384.6875 L 78.292969 390.410156 Z M 76.402344 374.699219 "/>
<path style=" stroke:none;fill-rule:nonzero;fill:rgb(0%,0%,0%);fill-opacity:1;" d="M 107.726562 346.890625 L 94.765625 362.96875 L 78.71875 350.035156 Z M 107.726562 346.890625 "/>
<path style=" stroke:none;fill-rule:nonzero;fill:rgb(100%,100%,100%);fill-opacity:1;" d="M 59.097656 333.957031 L 80.28125 333.957031 L 80.28125 354.730469 L 59.097656 354.730469 Z M 59.097656 333.957031 "/>
<path style=" stroke:none;fill-rule:nonzero;fill:rgb(100%,100%,100%);fill-opacity:1;" d="M 106.234375 333.003906 L 127.417969 333.003906 L 127.417969 353.773438 L 106.234375 353.773438 Z M 106.234375 333.003906 "/>
</g>
</svg>
