<?xml version="1.0" encoding="utf-8"?>
<!-- Generator: Adobe Illustrator 24.0.0, SVG Export Plug-In . SVG Version: 6.00 Build 0)  -->
<svg version="1.1" id="Layer_1" xmlns="http://www.w3.org/2000/svg" xmlns:xlink="http://www.w3.org/1999/xlink" x="0px" y="0px"
	 viewBox="0 0 24 24" style="enable-background:new 0 0 24 24;" xml:space="preserve">
<style type="text/css">
	.st0{fill:#DA6E89;}
</style>
<path class="st0" d="M14.2,22.5c-0.4,0-0.8-0.3-0.8-0.8s0.3-0.8,0.8-0.8h4.5c0.4,0,0.8-0.3,0.8-0.7v-1.5c0-0.4,0.3-0.8,0.8-0.8
	s0.8,0.3,0.8,0.8v1.5c0,1.2-1,2.3-2.3,2.3L14.2,22.5z M20.2,7.5c-0.4,0-0.7-0.3-0.8-0.7V5.3c0-0.4-0.3-0.8-0.8-0.8h-4.5
	c-0.4,0-0.8-0.3-0.8-0.8S13.8,3,14.2,3h4.5C20,3,21,4,21,5.2c0,0,0,0,0,0.1v1.5C21,7.2,20.7,7.5,20.2,7.5L20.2,7.5z M10.5,24l-0.2,0
	l-9-1.3C0.5,22.6,0,22,0,21.2V3.7C0,3,0.5,2.4,1.2,2.3l9-2.2l0.3,0C11.3,0,12,0.7,12,1.5v21C12,23.3,11.3,24,10.5,24L10.5,24z
	 M1.5,3.7L1.5,3.7l0,17.5l9,1.3v-21L1.5,3.7z M20.3,16.5c-0.2,0-0.4-0.1-0.5-0.2s-0.2-0.3-0.2-0.5s0.1-0.4,0.2-0.5l1.7-1.7H15
	c-0.4,0-0.8-0.3-0.8-0.8S14.6,12,15,12h6.4l-1.7-1.7c-0.3-0.3-0.3-0.8,0-1c0,0,0,0,0,0c0.3-0.3,0.8-0.3,1.1,0l3,3
	c0.1,0.1,0.2,0.4,0.2,0.6c0,0.2-0.1,0.4-0.2,0.5l-3,3C20.6,16.4,20.4,16.5,20.3,16.5L20.3,16.5z"/>
<path class="st0" d="M7.9,13.1c-0.6,0.1-1.2-0.4-1.2-1c-0.1-0.6,0.4-1.2,1-1.2c0.1,0,0.1,0,0.2,0c0.6,0.1,1.1,0.6,1,1.2
	C8.8,12.7,8.4,13.1,7.9,13.1z"/>
</svg>
