<?xml version="1.0" encoding="utf-8"?>
<!-- Generator: Adobe Illustrator 24.0.0, SVG Export Plug-In . SVG Version: 6.00 Build 0)  -->
<svg version="1.1" id="Layer_1" xmlns="http://www.w3.org/2000/svg" xmlns:xlink="http://www.w3.org/1999/xlink" x="0px" y="0px"
	 viewBox="0 0 24 24" style="enable-background:new 0 0 24 24;" xml:space="preserve">
<style type="text/css">
	.st0{fill:#009CCC;}
</style>
<path class="st0" d="M23.8,1.1C23.7,1,23.5,1,23.3,1l-23,9.5c-0.3,0.1-0.4,0.4-0.3,0.7c0.1,0.1,0.2,0.2,0.3,0.3l6.3,2.5
	C6.8,14,7,14,7.1,13.9l8.4-6c0.2-0.2,0.5-0.1,0.7,0.1c0.1,0.2,0.1,0.5-0.1,0.7l-7,6.7C9.1,15.5,9,15.6,9,15.8v6.7
	C9,22.8,9.2,23,9.5,23c0.2,0,0.3-0.1,0.4-0.2l3.2-5.4c0.1-0.1,0.2-0.2,0.3-0.1l5.8,3.2c0.2,0.1,0.5,0,0.7-0.2c0,0,0-0.1,0.1-0.1
	l4-18.5C24,1.4,24,1.2,23.8,1.1z"/>
</svg>
