<svg id="Layer_1" data-name="Layer 1" xmlns="http://www.w3.org/2000/svg" viewBox="0 0 511 489.7"><defs><style>.cls-1{fill:#fe7;}</style></defs><title>star5rate</title><path class="cls-1" d="M114.37,500.67a27.2,27.2,0,0,1-26.46-33.22l32.87-144.81L9.29,224.87a27.18,27.18,0,0,1,15.4-47.53L172.2,164,230.52,27.47a27.15,27.15,0,0,1,50,0L338.79,164l147.49,13.39a27.19,27.19,0,0,1,15.44,47.53L390.23,322.62l32.88,144.81a27.15,27.15,0,0,1-40.41,29.34l-127.2-76L128.3,496.81A27.26,27.26,0,0,1,114.37,500.67ZM255.5,388a27.24,27.24,0,0,1,13.92,3.85l120.05,71.8L358.44,327a27.16,27.16,0,0,1,8.61-26.46L472.32,208.2,333,195.55a27.15,27.15,0,0,1-22.57-16.46l-55-128.8-55,128.82A27.07,27.07,0,0,1,178,195.51L38.66,208.15l105.27,92.33a27.1,27.1,0,0,1,8.6,26.48l-31,136.68,120-71.78A27.25,27.25,0,0,1,255.5,388ZM171.08,166.59s0,0,0,0Zm168.8-.06,0,0S339.9,166.55,339.88,166.53Z" transform="translate(0 -10.96)"/><circle class="cls-1" cx="246.5" cy="266.54" r="119.5"/><ellipse class="cls-1" cx="109.33" cy="212.54" rx="76.67" ry="44.5"/><ellipse class="cls-1" cx="401.5" cy="207.54" rx="76.67" ry="44.5"/><ellipse class="cls-1" cx="306.5" cy="311.79" rx="76.67" ry="104.25"/><ellipse class="cls-1" cx="198.5" cy="360.04" rx="76.67" ry="65"/><ellipse class="cls-1" cx="255.5" cy="138.31" rx="38" ry="113.72"/><ellipse class="cls-1" cx="255.49" cy="149.54" rx="76.67" ry="44.5"/><ellipse class="cls-1" cx="339.9" cy="257.04" rx="76.67" ry="44.5"/><ellipse class="cls-1" cx="178.82" cy="257.04" rx="76.67" ry="44.5"/><ellipse class="cls-1" cx="144.07" cy="409.54" rx="34.74" ry="60.49"/><ellipse class="cls-1" cx="366" cy="410.07" rx="43.25" ry="55.5"/></svg>